<?xml version="1.0" standalone="no"?>
<!DOCTYPE svg PUBLIC "-//W3C//DTD SVG 20010904//EN"
 "http://www.w3.org/TR/2001/REC-SVG-20010904/DTD/svg10.dtd">
<svg version="1.0" xmlns="http://www.w3.org/2000/svg"
 width="27.000000pt" height="28.000000pt" viewBox="0 0 27.000000 28.000000"
 preserveAspectRatio="xMidYMid meet">

<g transform="translate(0.000000,28.000000) scale(0.100000,-0.100000)"
fill="#000000" stroke="none">
<path d="M85 212 c-78 -16 -98 -141 -31 -187 25 -18 77 -19 95 -2 11 9 14 9
18 0 3 -7 16 -13 29 -13 24 0 24 1 24 101 l0 102 -36 -6 c-19 -3 -45 -3 -57 2
-12 4 -31 5 -42 3z m65 -73 c25 -47 -15 -93 -60 -69 -23 12 -28 58 -8 78 19
19 56 14 68 -9z"/>
<path d="M264 110 c0 -58 1 -81 3 -53 2 29 2 77 0 106 -2 28 -3 5 -3 -53z"/>
</g>
</svg>
